<svg width="161" height="33" viewBox="0 0 161 33" fill="none" xmlns="http://www.w3.org/2000/svg">
<path d="M49.9785 6.09375V26H45.877L37.8789 12.6562V26H33.7773V6.09375H37.8789L45.8906 19.4512V6.09375H49.9785ZM56.4727 11.207L58.9199 15.7051L61.4355 11.207H65.6328L61.4492 18.4395L65.8242 26H61.6133L58.9473 21.2422L56.2812 26H52.0703L56.4453 18.4395L52.2617 11.207H56.4727ZM71.8945 6.09375V26H67.793V6.09375H71.8945ZM83.8164 6.09375L75.9277 15.9238L71.375 20.8184L70.6367 16.9355L73.7129 12.7246L78.7852 6.09375H83.8164ZM79.1543 26L73.2891 16.7988L76.3242 14.2559L84.0078 26H79.1543ZM93.332 22.6641V16.0742C93.332 15.6003 93.2546 15.1947 93.0996 14.8574C92.9447 14.5111 92.7031 14.2422 92.375 14.0508C92.056 13.8594 91.6413 13.7637 91.1309 13.7637C90.6934 13.7637 90.3151 13.8411 89.9961 13.9961C89.6771 14.1419 89.431 14.3561 89.2578 14.6387C89.0846 14.9121 88.998 15.2357 88.998 15.6094H85.0605C85.0605 14.9805 85.2064 14.3835 85.498 13.8184C85.7897 13.2533 86.2135 12.7565 86.7695 12.3281C87.3255 11.8906 87.9863 11.5488 88.752 11.3027C89.5267 11.0566 90.3926 10.9336 91.3496 10.9336C92.498 10.9336 93.5189 11.125 94.4121 11.5078C95.3053 11.8906 96.0072 12.4648 96.5176 13.2305C97.0371 13.9961 97.2969 14.9531 97.2969 16.1016V22.4316C97.2969 23.2428 97.347 23.9082 97.4473 24.4277C97.5475 24.9382 97.6934 25.3848 97.8848 25.7676V26H93.9062C93.7148 25.599 93.569 25.0977 93.4688 24.4961C93.3776 23.8854 93.332 23.2747 93.332 22.6641ZM93.8516 16.9902L93.8789 19.2188H91.6777C91.1582 19.2188 90.707 19.278 90.3242 19.3965C89.9414 19.515 89.627 19.6836 89.3809 19.9023C89.1348 20.112 88.9525 20.3581 88.834 20.6406C88.7246 20.9232 88.6699 21.2331 88.6699 21.5703C88.6699 21.9076 88.7474 22.2129 88.9023 22.4863C89.0573 22.7507 89.2806 22.9603 89.5723 23.1152C89.8639 23.2611 90.2057 23.334 90.5977 23.334C91.1901 23.334 91.7051 23.2155 92.1426 22.9785C92.5801 22.7415 92.9173 22.4499 93.1543 22.1035C93.4004 21.7572 93.528 21.429 93.5371 21.1191L94.5762 22.7871C94.4303 23.1608 94.2298 23.5482 93.9746 23.9492C93.7285 24.3503 93.4141 24.7285 93.0312 25.084C92.6484 25.4303 92.1882 25.7174 91.6504 25.9453C91.1126 26.1641 90.4746 26.2734 89.7363 26.2734C88.7975 26.2734 87.9453 26.0866 87.1797 25.7129C86.4232 25.3301 85.8216 24.806 85.375 24.1406C84.9375 23.4661 84.7188 22.7005 84.7188 21.8438C84.7188 21.069 84.8646 20.3809 85.1562 19.7793C85.4479 19.1777 85.8763 18.6719 86.4414 18.2617C87.0156 17.8424 87.7311 17.528 88.5879 17.3184C89.4447 17.0996 90.4382 16.9902 91.5684 16.9902H93.8516ZM104.188 14.3652V26H100.25V11.207H103.941L104.188 14.3652ZM103.613 18.084H102.547C102.547 16.9902 102.688 16.0059 102.971 15.1309C103.253 14.2467 103.65 13.4948 104.16 12.875C104.671 12.2461 105.277 11.7676 105.979 11.4395C106.689 11.1022 107.482 10.9336 108.357 10.9336C109.05 10.9336 109.684 11.0339 110.258 11.2344C110.832 11.4349 111.324 11.7539 111.734 12.1914C112.154 12.6289 112.473 13.2077 112.691 13.9277C112.919 14.6478 113.033 15.5273 113.033 16.5664V26H109.068V16.5527C109.068 15.8965 108.977 15.3861 108.795 15.0215C108.613 14.6569 108.344 14.4017 107.988 14.2559C107.642 14.1009 107.214 14.0234 106.703 14.0234C106.174 14.0234 105.714 14.1283 105.322 14.3379C104.939 14.5475 104.62 14.8392 104.365 15.2129C104.119 15.5775 103.932 16.0059 103.805 16.498C103.677 16.9902 103.613 17.5189 103.613 18.084ZM116.027 5H119.965V22.6094L119.568 26H116.027V5ZM129.33 18.4531V18.7402C129.33 19.8431 129.212 20.8548 128.975 21.7754C128.747 22.696 128.391 23.4935 127.908 24.168C127.425 24.8333 126.824 25.3529 126.104 25.7266C125.393 26.0911 124.554 26.2734 123.588 26.2734C122.686 26.2734 121.902 26.0911 121.236 25.7266C120.58 25.362 120.029 24.847 119.582 24.1816C119.135 23.5163 118.775 22.737 118.502 21.8438C118.229 20.9505 118.023 19.9753 117.887 18.918V18.2891C118.023 17.2318 118.229 16.2565 118.502 15.3633C118.775 14.4701 119.135 13.6908 119.582 13.0254C120.029 12.36 120.58 11.8451 121.236 11.4805C121.893 11.1159 122.667 10.9336 123.561 10.9336C124.536 10.9336 125.383 11.1204 126.104 11.4941C126.833 11.8587 127.434 12.3783 127.908 13.0527C128.391 13.7181 128.747 14.5111 128.975 15.4316C129.212 16.3431 129.33 17.3503 129.33 18.4531ZM125.393 18.7402V18.4531C125.393 17.8516 125.347 17.2865 125.256 16.7578C125.174 16.2201 125.028 15.7507 124.818 15.3496C124.609 14.9395 124.322 14.6159 123.957 14.3789C123.602 14.1419 123.141 14.0234 122.576 14.0234C122.038 14.0234 121.583 14.1146 121.209 14.2969C120.835 14.4792 120.525 14.7344 120.279 15.0625C120.042 15.3906 119.865 15.7826 119.746 16.2383C119.628 16.6849 119.555 17.1771 119.527 17.7148V19.5059C119.555 20.2259 119.673 20.8639 119.883 21.4199C120.102 21.9668 120.43 22.3997 120.867 22.7188C121.314 23.0286 121.893 23.1836 122.604 23.1836C123.16 23.1836 123.62 23.0742 123.984 22.8555C124.349 22.6367 124.632 22.3268 124.832 21.9258C125.042 21.5247 125.188 21.0553 125.27 20.5176C125.352 19.9707 125.393 19.3783 125.393 18.7402ZM139.762 22.6641V16.0742C139.762 15.6003 139.684 15.1947 139.529 14.8574C139.374 14.5111 139.133 14.2422 138.805 14.0508C138.486 13.8594 138.071 13.7637 137.561 13.7637C137.123 13.7637 136.745 13.8411 136.426 13.9961C136.107 14.1419 135.861 14.3561 135.688 14.6387C135.514 14.9121 135.428 15.2357 135.428 15.6094H131.49C131.49 14.9805 131.636 14.3835 131.928 13.8184C132.219 13.2533 132.643 12.7565 133.199 12.3281C133.755 11.8906 134.416 11.5488 135.182 11.3027C135.956 11.0566 136.822 10.9336 137.779 10.9336C138.928 10.9336 139.949 11.125 140.842 11.5078C141.735 11.8906 142.437 12.4648 142.947 13.2305C143.467 13.9961 143.727 14.9531 143.727 16.1016V22.4316C143.727 23.2428 143.777 23.9082 143.877 24.4277C143.977 24.9382 144.123 25.3848 144.314 25.7676V26H140.336C140.145 25.599 139.999 25.0977 139.898 24.4961C139.807 23.8854 139.762 23.2747 139.762 22.6641ZM140.281 16.9902L140.309 19.2188H138.107C137.588 19.2188 137.137 19.278 136.754 19.3965C136.371 19.515 136.057 19.6836 135.811 19.9023C135.564 20.112 135.382 20.3581 135.264 20.6406C135.154 20.9232 135.1 21.2331 135.1 21.5703C135.1 21.9076 135.177 22.2129 135.332 22.4863C135.487 22.7507 135.71 22.9603 136.002 23.1152C136.294 23.2611 136.635 23.334 137.027 23.334C137.62 23.334 138.135 23.2155 138.572 22.9785C139.01 22.7415 139.347 22.4499 139.584 22.1035C139.83 21.7572 139.958 21.429 139.967 21.1191L141.006 22.7871C140.86 23.1608 140.66 23.5482 140.404 23.9492C140.158 24.3503 139.844 24.7285 139.461 25.084C139.078 25.4303 138.618 25.7174 138.08 25.9453C137.542 26.1641 136.904 26.2734 136.166 26.2734C135.227 26.2734 134.375 26.0866 133.609 25.7129C132.853 25.3301 132.251 24.806 131.805 24.1406C131.367 23.4661 131.148 22.7005 131.148 21.8438C131.148 21.069 131.294 20.3809 131.586 19.7793C131.878 19.1777 132.306 18.6719 132.871 18.2617C133.445 17.8424 134.161 17.528 135.018 17.3184C135.874 17.0996 136.868 16.9902 137.998 16.9902H140.281ZM150.617 14.3652V26H146.68V11.207H150.371L150.617 14.3652ZM150.043 18.084H148.977C148.977 16.9902 149.118 16.0059 149.4 15.1309C149.683 14.2467 150.079 13.4948 150.59 12.875C151.1 12.2461 151.706 11.7676 152.408 11.4395C153.119 11.1022 153.912 10.9336 154.787 10.9336C155.48 10.9336 156.113 11.0339 156.688 11.2344C157.262 11.4349 157.754 11.7539 158.164 12.1914C158.583 12.6289 158.902 13.2077 159.121 13.9277C159.349 14.6478 159.463 15.5273 159.463 16.5664V26H155.498V16.5527C155.498 15.8965 155.407 15.3861 155.225 15.0215C155.042 14.6569 154.773 14.4017 154.418 14.2559C154.072 14.1009 153.643 14.0234 153.133 14.0234C152.604 14.0234 152.144 14.1283 151.752 14.3379C151.369 14.5475 151.05 14.8392 150.795 15.2129C150.549 15.5775 150.362 16.0059 150.234 16.498C150.107 16.9902 150.043 17.5189 150.043 18.084Z" fill="white"/>
<rect y="2" width="6" height="26" rx="2" fill="#646CFF"/>
<rect x="8" y="2" width="6" height="26" rx="2" fill="#8F95FF"/>
<rect x="16" y="2" width="6" height="26" rx="2" fill="#3B3E7D"/>
</svg>
